<?xml version="1.0" encoding="utf-8"?>
<!-- Generator: Adobe Illustrator 27.1.1, SVG Export Plug-In . SVG Version: 6.00 Build 0)  -->
<svg version="1.1" id="Calque_2_00000060003677328372083870000003956877923030677179_"
	 xmlns="http://www.w3.org/2000/svg" xmlns:xlink="http://www.w3.org/1999/xlink" x="0px" y="0px" viewBox="0 0 30 25"
	 style="enable-background:new 0 0 30 25;" xml:space="preserve">
<style type="text/css">
	.st0{fill:#EAE1B1;}
</style>
<g id="Maquette">
	<path class="st0" d="M27.7,4.6H2.3C1,4.6,0,3.6,0,2.3v0C0,1,1,0,2.3,0l25.4,0C29,0,30,1,30,2.3v0C30,3.6,29,4.6,27.7,4.6z"/>
	<g id="Maquette_00000102502360982737112880000001974609788815696787_">
		<path class="st0" d="M27.7,14.8H2.3c-1.3,0-2.3-1-2.3-2.3v0c0-1.3,1-2.3,2.3-2.3h25.4c1.3,0,2.3,1,2.3,2.3v0
			C30,13.8,29,14.8,27.7,14.8z"/>
	</g>
	<g id="Maquette_00000113341496490288254730000003916715738274785721_">
		<path class="st0" d="M27.7,25H2.3C1,25,0,24,0,22.7v0c0-1.3,1-2.3,2.3-2.3h25.4c1.3,0,2.3,1,2.3,2.3v0C30,24,29,25,27.7,25z"/>
	</g>
</g>
</svg>
