<?xml version="1.0" encoding="UTF-8"?>
<svg id="Calque_2" data-name="Calque 2" xmlns="http://www.w3.org/2000/svg" viewBox="0 0 30.06 30">
  <defs>
    <style>
      .cls-1 {
        fill: #d2bbd7;
      }
    </style>
  </defs>
  <g id="Maquette">
    <g id="Calque_1-2" data-name="Calque 1-2">
      <path class="cls-1" d="m15.02,0C10.94,0,10.43.02,8.83.09c-1.6.08-2.69.33-3.65.7-.99.38-1.83.9-2.66,1.73-.83.83-1.35,1.67-1.73,2.65-.37.96-.62,2.04-.7,3.64-.07,1.6-.09,2.11-.09,6.19s.02,4.59.09,6.19c.08,1.6.33,2.69.7,3.64.38.99.9,1.82,1.73,2.65.83.83,1.68,1.35,2.66,1.73.96.37,2.05.62,3.65.7s2.12.09,6.2.09,4.59-.02,6.2-.09c1.6-.08,2.69-.33,3.65-.7.99-.38,1.82-.9,2.66-1.73.83-.83,1.35-1.67,1.73-2.65.37-.96.62-2.04.7-3.64.08-1.6.09-2.11.09-6.19s-.02-4.59-.09-6.19c-.08-1.6-.33-2.69-.7-3.64-.38-.99-.9-1.82-1.73-2.65-.83-.83-1.67-1.35-2.66-1.73-.96-.37-2.05-.62-3.65-.7-1.6-.08-2.12-.09-6.2-.09h0Zm-1.35,2.7h1.35c4.01,0,4.48.02,6.07.09,1.47.07,2.26.31,2.79.52.7.27,1.2.59,1.72,1.12s.85,1.02,1.12,1.72c.2.53.45,1.32.52,2.79.08,1.58.09,2.06.09,6.06s-.02,4.48-.09,6.06c-.07,1.47-.32,2.26-.52,2.79-.27.7-.59,1.2-1.12,1.72s-1.02.85-1.72,1.12c-.53.21-1.32.45-2.79.52-1.58.08-2.06.09-6.07.09s-4.48-.02-6.07-.09c-1.47-.07-2.26-.32-2.79-.52-.7-.27-1.2-.59-1.72-1.12s-.85-1.02-1.12-1.72c-.2-.53-.45-1.32-.52-2.79-.08-1.58-.09-2.06-.09-6.06s.02-4.48.09-6.06c.07-1.47.32-2.26.52-2.79.27-.7.59-1.2,1.12-1.72s1.02-.85,1.72-1.12c.53-.21,1.32-.45,2.79-.52,1.39-.07,1.93-.08,4.72-.09h0Zm9.37,2.49c-1,0-1.8.8-1.8,1.8s.8,1.8,1.8,1.8,1.8-.8,1.8-1.8-.8-1.8-1.8-1.8h0Zm-8.02,2.11c-4.26,0-7.71,3.45-7.71,7.7s3.46,7.7,7.71,7.7,7.71-3.45,7.71-7.7-3.45-7.7-7.71-7.7h0Zm0,2.7c2.77,0,5.01,2.24,5.01,5s-2.24,5-5.01,5-5.01-2.24-5.01-5,2.24-5,5.01-5Z"/>
    </g>
  </g>
</svg>