<?xml version="1.0" encoding="UTF-8"?>
<svg id="Calque_2" data-name="Calque 2" xmlns="http://www.w3.org/2000/svg" viewBox="0 0 151.94 44.18">
  <defs>
    <style>
      .cls-1 {
        fill: #edc4d9;
      }
    </style>
  </defs>
  <g id="Maquette">
    <g>
      <path class="cls-1" d="m2.3,16.34c-.75,0-1.32-.2-1.71-.59s-.59-.96-.59-1.71v-2.63c0-.81.15-1.38.45-1.72.3-.34.82-.51,1.55-.51h.88c.19,0,.31-.04.38-.11s.07-.17.02-.3c-.05-.12-.14-.27-.29-.43l-.62-.72c-1.01-1.15-1.52-2.28-1.52-3.38,0-1.22.44-2.19,1.29-2.91C2.99.61,4.22.25,5.83.25h5.83c.75,0,1.32.19,1.71.58.39.39.58.96.58,1.71v2.56c0,.8-.15,1.39-.45,1.75-.3.37-.77.55-1.43.55h-.89c-.49,0-.52.25-.09.76l.67.8c1.02,1.2,1.52,2.32,1.5,3.38-.01,1.22-.45,2.19-1.31,2.91-.86.72-2.1,1.08-3.72,1.08H2.3Z"/>
      <path class="cls-1" d="m21.22,16.34c-.75,0-1.32-.2-1.71-.59s-.59-.96-.59-1.71v-4.25h-1.8c-.58,0-1.03-.19-1.34-.58s-.47-.96-.47-1.71V2.54c0-.75.2-1.32.59-1.71.39-.39.96-.59,1.71-.59h10.23c.75,0,1.32.2,1.71.59s.59.96.59,1.71v4.96c0,.75-.16,1.32-.47,1.71s-.76.58-1.34.58h-1.81v4.25c0,.75-.2,1.32-.58,1.71-.39.39-.96.59-1.71.59h-3.02Z"/>
      <path class="cls-1" d="m34.51,16.34c-.75,0-1.32-.2-1.71-.59-.39-.39-.59-.96-.59-1.71V2.54c0-.75.2-1.32.59-1.71.39-.39.96-.59,1.71-.59h5.21c5.44,0,8.15,2.09,8.15,6.27,0,1.05-.23,1.97-.69,2.78-.46.81-1.07,1.45-1.85,1.95l2.5,2.81c.32.36.51.72.57,1.07.06.36-.04.65-.29.88-.25.23-.62.35-1.13.35h-12.48Zm5.61-9.14c.39.37.87.55,1.47.55s1.08-.18,1.47-.55.58-.83.58-1.4-.19-1.03-.58-1.39-.88-.55-1.47-.55-1.08.18-1.47.55-.58.83-.58,1.39.19,1.04.58,1.4Z"/>
      <path class="cls-1" d="m52.1,16.34c-.75,0-1.32-.2-1.71-.59-.39-.39-.59-.96-.59-1.71V2.54c0-.75.2-1.32.59-1.71.39-.39.96-.59,1.71-.59h9.3c.75,0,1.32.2,1.71.59.39.39.58.96.58,1.71v.76c0,.75-.19,1.32-.58,1.71-.39.39-.96.59-1.71.59h-.63v.71c0,.75-.2,1.32-.59,1.71s-.96.59-1.71.59h-1.06v1.18h3.99c.75,0,1.32.2,1.71.59.39.39.58.96.58,1.71v1.94c0,.75-.19,1.32-.58,1.71-.39.39-.96.59-1.71.59h-9.3Z"/>
      <path class="cls-1" d="m68.12,16.34c-.75,0-1.32-.2-1.71-.59-.39-.39-.59-.96-.59-1.71V2.54c0-.75.2-1.32.59-1.71.39-.39.96-.59,1.71-.59h9.3c.75,0,1.32.2,1.71.59.39.39.58.96.58,1.71v.76c0,.75-.19,1.32-.58,1.71-.39.39-.96.59-1.71.59h-.63v.71c0,.75-.2,1.32-.59,1.71s-.96.59-1.71.59h-1.06v1.18h3.99c.75,0,1.32.2,1.71.59.39.39.58.96.58,1.71v1.94c0,.75-.19,1.32-.58,1.71-.39.39-.96.59-1.71.59h-9.3Z"/>
      <path class="cls-1" d="m87.07,16.34c-.75,0-1.32-.2-1.71-.59s-.59-.96-.59-1.71v-4.25h-1.8c-.58,0-1.03-.19-1.34-.58s-.47-.96-.47-1.71V2.54c0-.75.2-1.32.59-1.71.39-.39.96-.59,1.71-.59h10.23c.75,0,1.32.2,1.71.59s.59.96.59,1.71v4.96c0,.75-.16,1.32-.47,1.71s-.76.58-1.34.58h-1.81v4.25c0,.75-.2,1.32-.58,1.71-.39.39-.96.59-1.71.59h-3.02Z"/>
      <path class="cls-1" d="m104.93,16.34c-.73,0-1.29-.21-1.68-.62-.39-.41-.59-.97-.59-1.68v-6.14c0-.74.2-1.31.61-1.7.41-.39.99-.59,1.73-.59h.3c.62,0,1.05-.13,1.27-.39.23-.26.34-.72.34-1.39v-1.29c0-.75.19-1.32.58-1.71.39-.39.95-.59,1.7-.59h3.04c.75,0,1.32.2,1.71.59s.59.96.59,1.71v4.67c0,1.12-.06,2.1-.17,2.94-.12.83-.32,1.6-.61,2.31s-.67,1.29-1.13,1.76c-.47.47-1.06.87-1.78,1.2s-1.56.57-2.53.71c-.97.15-2.1.22-3.4.22Z"/>
      <path class="cls-1" d="m116.27,16.34c-.93,0-1.53-.26-1.81-.77-.28-.52-.18-1.18.29-2l7.09-12.42c.43-.76.97-1.15,1.61-1.15s1.17.38,1.61,1.15l7.09,12.42c.47.82.57,1.48.29,2-.28.52-.88.77-1.82.77h-14.34Zm4.3-3.66c.39.37.88.55,1.47.55s1.08-.18,1.47-.55c.39-.37.58-.83.58-1.4s-.19-1.03-.58-1.39c-.39-.37-.88-.55-1.47-.55s-1.08.18-1.47.55c-.39.37-.58.83-.58,1.39s.19,1.04.58,1.4Z"/>
      <path class="cls-1" d="m135.82,16.34c-.68,0-1.2-.2-1.56-.59-.36-.39-.54-.96-.54-1.71V2.07c0-.44.11-.83.33-1.17s.5-.58.84-.72.71-.19,1.12-.15.8.2,1.17.46l5.65,4.09,5.66-4.09c.37-.26.76-.42,1.17-.46.41-.04.78,0,1.12.15s.61.38.83.71c.22.33.33.72.33,1.17v11.97c0,.75-.19,1.32-.58,1.71-.39.39-.96.59-1.71.59h-13.82Zm2.04-3.5c.39.36.87.54,1.47.54s1.08-.18,1.47-.55.58-.83.58-1.39-.19-1.03-.58-1.39-.88-.55-1.47-.55-1.08.18-1.47.55-.58.83-.58,1.39.19,1.04.58,1.4Zm7.04,0c.39.37.88.55,1.47.55s1.08-.18,1.47-.54c.39-.36.58-.83.58-1.4s-.19-1.03-.58-1.39-.87-.55-1.47-.55-1.08.18-1.47.55c-.39.37-.58.83-.58,1.39s.19,1.03.58,1.39Z"/>
      <path class="cls-1" d="m18.86,43.94c-.75,0-1.32-.2-1.71-.59-.39-.39-.59-.96-.59-1.71v-11.5c0-.75.2-1.32.59-1.71.39-.39.96-.59,1.71-.59h9.3c.75,0,1.32.2,1.71.59.39.39.58.96.58,1.71v2.59c0,.74-.16,1.31-.49,1.7-.33.39-.78.59-1.36.59h-.98v1.27c0,.77-.16,1.35-.48,1.73s-.84.57-1.56.57h-1.4v3.04c0,.75-.2,1.32-.59,1.71-.39.39-.96.59-1.71.59h-3.01Z"/>
      <path class="cls-1" d="m34.58,43.94c-.75,0-1.32-.2-1.71-.59-.39-.39-.59-.96-.59-1.71v-11.5c0-.75.2-1.32.59-1.71.39-.39.96-.59,1.71-.59h9.3c.75,0,1.32.2,1.71.59.39.39.58.96.58,1.71v.76c0,.75-.19,1.32-.58,1.71-.39.39-.96.59-1.71.59h-.63v.71c0,.75-.2,1.32-.59,1.71s-.96.59-1.71.59h-1.06v1.18h3.99c.75,0,1.32.2,1.71.59.39.39.58.96.58,1.71v1.94c0,.75-.19,1.32-.58,1.71-.39.39-.96.59-1.71.59h-9.3Z"/>
      <path class="cls-1" d="m49.68,43.94c-.75,0-1.32-.2-1.71-.59s-.59-.96-.59-1.71v-2.63c0-.81.15-1.38.45-1.72.3-.34.82-.51,1.55-.51h.88c.19,0,.31-.04.38-.11s.07-.17.02-.3c-.05-.12-.14-.27-.29-.43l-.62-.72c-1.01-1.15-1.52-2.28-1.52-3.38,0-1.22.44-2.19,1.29-2.91.85-.72,2.08-1.08,3.69-1.08h5.83c.75,0,1.32.19,1.71.58.39.39.58.96.58,1.71v2.56c0,.8-.15,1.39-.45,1.75-.3.37-.77.55-1.43.55h-.89c-.49,0-.52.25-.09.76l.67.8c1.02,1.2,1.52,2.32,1.5,3.38-.01,1.22-.45,2.19-1.31,2.91-.86.72-2.1,1.08-3.72,1.08h-5.94Z"/>
      <path class="cls-1" d="m68.61,43.94c-.75,0-1.32-.2-1.71-.59s-.59-.96-.59-1.71v-4.25h-1.8c-.58,0-1.03-.19-1.34-.58s-.47-.96-.47-1.71v-4.96c0-.75.2-1.32.59-1.71.39-.39.96-.59,1.71-.59h10.23c.75,0,1.32.2,1.71.59s.59.96.59,1.71v4.96c0,.75-.16,1.32-.47,1.71s-.76.58-1.34.58h-1.81v4.25c0,.75-.2,1.32-.58,1.71-.39.39-.96.59-1.71.59h-3.02Z"/>
      <path class="cls-1" d="m81.89,43.94c-.75,0-1.32-.2-1.71-.59-.39-.39-.59-.96-.59-1.71v-11.5c0-.75.2-1.32.59-1.71.39-.39.96-.59,1.71-.59h3.01c.75,0,1.32.2,1.71.59.39.39.59.96.59,1.71v11.5c0,.75-.2,1.32-.59,1.71-.39.39-.96.59-1.71.59h-3.01Z"/>
      <path class="cls-1" d="m104.64,27.84c.93,0,1.53.26,1.81.78.28.52.19,1.19-.29,2l-7.1,12.41c-.44.76-.98,1.15-1.61,1.15s-1.16-.38-1.59-1.15l-7.09-12.41c-.47-.82-.57-1.48-.29-2,.28-.52.88-.78,1.81-.78h14.34Zm-4.3,3.66c-.39-.37-.88-.55-1.47-.55s-1.08.18-1.47.55-.58.83-.58,1.4.19,1.03.58,1.39.87.55,1.47.55,1.08-.18,1.47-.55.58-.83.58-1.39-.19-1.04-.58-1.4Z"/>
      <path class="cls-1" d="m105.58,43.94c-.93,0-1.53-.26-1.81-.77-.28-.52-.18-1.18.29-2l7.09-12.42c.43-.76.97-1.15,1.61-1.15s1.17.38,1.61,1.15l7.09,12.42c.47.82.57,1.48.29,2-.28.52-.88.77-1.82.77h-14.34Zm4.3-3.66c.39.37.88.55,1.47.55s1.08-.18,1.47-.55c.39-.37.58-.83.58-1.4s-.19-1.03-.58-1.39c-.39-.37-.88-.55-1.47-.55s-1.08.18-1.47.55c-.39.37-.58.83-.58,1.39s.19,1.04.58,1.4Z"/>
      <path class="cls-1" d="m125.33,43.94c-.75,0-1.32-.2-1.71-.59-.39-.39-.59-.96-.59-1.71v-11.5c0-.75.2-1.32.59-1.71.39-.39.96-.59,1.71-.59h3.01c.75,0,1.32.2,1.71.59.39.39.59.96.59,1.71v3.07h3.13c.75,0,1.32.19,1.71.58.39.39.59.96.59,1.71v6.14c0,.75-.2,1.32-.59,1.71-.39.39-.96.59-1.71.59h-8.45Z"/>
    </g>
  </g>
</svg>