<?xml version="1.0" encoding="UTF-8"?>
<svg id="Calque_2" data-name="Calque 2" xmlns="http://www.w3.org/2000/svg" viewBox="0 0 26 30">
  <defs>
    <style>
      .cls-1 {
        fill: #d2bbd7;
      }
    </style>
  </defs>
  <g id="Maquette">
    <path class="cls-1" d="m22.76,6.42c-.2-.1-.4-.22-.59-.34-.56-.37-1.06-.8-1.52-1.29-1.13-1.29-1.55-2.61-1.71-3.53h0c-.13-.76-.08-1.26-.07-1.26h-5.15v19.92c0,.27,0,.53-.01.79,0,.03,0,.06,0,.1,0,.01,0,.03,0,.04h0c-.11,1.46-.94,2.76-2.2,3.48-.65.37-1.38.56-2.13.56-2.4,0-4.35-1.96-4.35-4.37s1.95-4.37,4.35-4.37c.45,0,.91.07,1.34.21v-5.25c-2.65-.34-5.32.44-7.37,2.16-.89.77-1.63,1.69-2.21,2.72-.22.37-1.04,1.88-1.14,4.33-.06,1.39.35,2.83.55,3.42h0c.12.36.61,1.56,1.4,2.56.64.81,1.39,1.52,2.23,2.11h0s.01,0,.01,0c2.49,1.69,5.26,1.58,5.26,1.58.48-.02,2.08,0,3.9-.86,2.02-.96,3.17-2.38,3.17-2.38.73-.85,1.32-1.82,1.73-2.87.47-1.23.62-2.7.62-3.28v-10.57c.06.04.89.59.89.59,0,0,1.2.77,3.07,1.27,1.34.36,3.15.43,3.15.43v-5.11c-.63.07-1.92-.13-3.24-.79Z"/>
  </g>
</svg>