<?xml version="1.0" encoding="UTF-8"?>
<svg id="Calque_2" data-name="Calque 2" xmlns="http://www.w3.org/2000/svg" viewBox="0 0 36.96 30">
  <defs>
    <style>
      .cls-1 {
        fill: #d2bbd7;
      }
    </style>
  </defs>
  <g id="Maquette">
    <g id="Calque_1-2" data-name="Calque 1-2">
      <path class="cls-1" d="m33.18,7.48c.02.33.02.65.02.98,0,10.01-7.63,21.54-21.58,21.54h0c-4.12,0-8.16-1.18-11.62-3.41.6.07,1.2.11,1.8.11,3.42,0,6.73-1.14,9.42-3.25-3.24-.06-6.09-2.18-7.08-5.26,1.13.22,2.31.18,3.43-.13-3.54-.72-6.08-3.82-6.08-7.42v-.09c1.05.59,2.24.91,3.44.94C1.59,9.28.57,4.85,2.57,1.39c3.85,4.73,9.53,7.61,15.63,7.91-.61-2.63.22-5.39,2.19-7.24,3.05-2.86,7.86-2.72,10.72.33,1.7-.33,3.32-.95,4.82-1.84-.57,1.76-1.76,3.24-3.34,4.18,1.51-.18,2.97-.58,4.36-1.19-1.01,1.52-2.3,2.85-3.78,3.92h0Z"/>
    </g>
  </g>
</svg>