<?xml version="1.0" encoding="UTF-8"?>
<svg id="Calque_2" data-name="Calque 2" xmlns="http://www.w3.org/2000/svg" viewBox="0 0 35 24.64">
  <defs>
    <style>
      .cls-1 {
        fill: #d2bbd7;
      }
    </style>
  </defs>
  <g id="Maquette">
    <g id="Calque_1-2" data-name="Calque 1-2">
      <path class="cls-1" d="m34.26,3.85h0c-.4-1.52-1.58-2.7-3.09-3.11-2.73-.74-13.67-.74-13.67-.74,0,0-10.95,0-13.67.74-1.51.4-2.69,1.6-3.09,3.11-.74,2.75-.74,8.47-.74,8.47,0,0,0,5.73.74,8.47.4,1.52,1.58,2.7,3.09,3.11,2.73.74,13.67.74,13.67.74,0,0,10.95,0,13.67-.74,1.51-.4,2.69-1.6,3.09-3.11.74-2.75.74-8.47.74-8.47,0,0,0-5.73-.74-8.47Zm-20.36,13.66V7.12l9.15,5.2-9.15,5.2h0Z"/>
    </g>
  </g>
</svg>